<svg width="376" height="327" viewBox="0 0 376 327" fill="none" xmlns="http://www.w3.org/2000/svg">
<g clip-path="url(#clip0_55_984)">
<path d="M120.477 304.702H101.767C104.69 271.634 104.983 238.005 102.059 204.936H120.185C117.553 238.005 117.553 271.073 120.477 304.702ZM120.477 99.0047C117.553 132.073 117.261 165.702 120.185 198.771H102.059C104.983 165.702 104.983 132.073 101.767 99.0047C104.983 64.8152 104.983 30.6257 101.767 -3.56377H120.185C117.553 30.6257 117.553 64.8152 120.477 99.0047Z" fill="#73BF45"/>
</g>
<g clip-path="url(#clip1_55_984)">
<path d="M26.7281 107.804L26.7281 89.0942C58.4586 92.0176 90.7269 92.3099 122.457 89.3865L122.457 107.512C90.7269 104.881 58.9964 104.881 26.7281 107.804ZM224.102 107.804C192.372 104.881 160.104 104.588 128.373 107.512L128.373 89.3865C160.104 92.3099 192.372 92.3099 224.102 89.0942C256.909 92.3099 289.715 92.3099 322.521 89.0942L322.521 107.512C289.715 104.881 256.909 104.881 224.102 107.804Z" fill="#73BF45"/>
</g>
<path d="M254.817 296.988H236.354C239.239 267.539 239.527 237.591 236.642 208.141H254.529C251.932 237.591 251.932 267.04 254.817 296.988ZM254.817 113.804C251.932 143.253 251.644 173.201 254.529 202.651H236.642C239.527 173.201 239.527 143.253 236.354 113.804C239.527 83.3563 239.527 52.9088 236.354 22.4613H254.529C251.932 52.9088 251.932 83.3563 254.817 113.804Z" fill="#73BF45"/>
<g clip-path="url(#clip2_55_984)">
<path d="M41.3103 223.519L41.3103 205.077C72.1104 207.958 103.433 208.246 134.233 205.365L134.233 223.231C103.433 220.638 72.6324 220.638 41.3103 223.519ZM232.898 223.519C202.097 220.638 170.775 220.349 139.975 223.231L139.975 205.365C170.775 208.246 202.097 208.246 232.898 205.077C264.742 208.246 296.586 208.246 328.43 205.077L328.43 223.231C296.586 220.638 264.742 220.638 232.898 223.519Z" fill="#73BF45"/>
</g>
<defs>
<clipPath id="clip0_55_984">
<rect width="184.636" height="319.449" fill="white" transform="translate(9.80042 7.32683)"/>
</clipPath>
<clipPath id="clip1_55_984">
<rect width="184.425" height="375.977" fill="white" transform="translate(375.977 7.12753) rotate(90)"/>
</clipPath>
<clipPath id="clip2_55_984">
<rect width="184.425" height="334.103" fill="white" transform="translate(351.922 122.95) rotate(90)"/>
</clipPath>
</defs>
</svg>
